<svg width="32" height="33" viewBox="0 0 32 33" fill="none" xmlns="http://www.w3.org/2000/svg">
<path d="M29 20H9L7 8H31L29 20Z" fill="#CCD6DD"/>
<path d="M30.984 25H8.984C7.89 25 7 24.109 7 23.016C7 21.923 7.906 21 9 21L9.007 20.999L9.015 21H29C29.489 21 29.906 20.646 29.986 20.164L31.986 8.164C32.035 7.874 31.953 7.578 31.762 7.353C31.573 7.129 31.294 7 31 7H7.817L6.777 0.834C6.698 0.361 6.293 0.042 5.835 0.02C5.819 0.017 5.808 0 5.792 0H1C0.448 0 0 0.448 0 1C0 1.552 0.448 2 1 2H4.946L7.849 19.216C6.207 19.709 5 21.216 5 23.016C5 25.213 6.788 27 8.984 27H30.984C31.537 27 31.984 26.553 31.984 26C31.984 25.447 31.537 25 30.984 25ZM28.82 15H25.513L25.786 13H29.152L28.82 15ZM23.494 15H20V13H23.767L23.494 15ZM18 15H14.506L14.233 13H18V15ZM12.488 15H9.181L8.848 13H12.215L12.488 15ZM9.847 19L9.514 17H12.761L13.034 19H9.847ZM15.053 19L14.78 17H18V19H15.053ZM20 19V17H23.22L22.947 19H20ZM24.967 19L25.24 17H28.487L28.154 19H24.967ZM29.819 9L29.486 11H26.06L26.333 9H29.819ZM24.314 9L24.041 11H20V9H24.314ZM18 9V11H13.959L13.686 9H18ZM11.667 9L11.94 11H8.513L8.18 9H11.667Z" fill="#66757F"/>
<path d="M12 32C13.6569 32 15 30.6569 15 29C15 27.3431 13.6569 26 12 26C10.3431 26 9 27.3431 9 29C9 30.6569 10.3431 32 12 32Z" fill="#E1E8ED"/>
<path d="M12 33C9.794 33 8 31.206 8 29C8 26.794 9.794 25 12 25C14.206 25 16 26.794 16 29C16 31.206 14.206 33 12 33ZM12 27C10.897 27 10 27.897 10 29C10 30.103 10.897 31 12 31C13.103 31 14 30.103 14 29C14 27.897 13.103 27 12 27Z" fill="#292F33"/>
<path d="M26 32C27.6569 32 29 30.6569 29 29C29 27.3431 27.6569 26 26 26C24.3431 26 23 27.3431 23 29C23 30.6569 24.3431 32 26 32Z" fill="#E1E8ED"/>
<path d="M26 33C23.794 33 22 31.206 22 29C22 26.794 23.794 25 26 25C28.206 25 30 26.794 30 29C30 31.206 28.206 33 26 33ZM26 27C24.897 27 24 27.897 24 29C24 30.103 24.897 31 26 31C27.103 31 28 30.103 28 29C28 27.897 27.103 27 26 27Z" fill="#292F33"/>
</svg>
